HIERARCHY
ROOT reference
{
  OFFSET -65.3212 -1.93545 -120.338
  CHANNELS 6 Xposition Yposition Zposition Zrotation Xrotation Yrotation
  JOINT Hips
  {
    OFFSET 0 78.7191 0
    CHANNELS 6 Xposition Yposition Zposition Zrotation Xrotation Yrotation
    JOINT Chest
    {
      OFFSET 0 8.7983 -4.7612
      CHANNELS 6 Xposition Yposition Zposition Zrotation Xrotation Yrotation
      JOINT Chest2
      {
        OFFSET 0 8.0291 0.4195
        CHANNELS 6 Xposition Yposition Zposition Zrotation Xrotation Yrotation
        JOINT Chest3
        {
          OFFSET 0 9.9351 -2.2114
          CHANNELS 6 Xposition Yposition Zposition Zrotation Xrotation Yrotation
          JOINT Neck
          {
            OFFSET 0 22.3885 -0.4656
            CHANNELS 6 Xposition Yposition Zposition Zrotation Xrotation Yrotation
            JOINT Head
            {
              OFFSET -0.0001 12.643 3.4389
              CHANNELS 6 Xposition Yposition Zposition Zrotation Xrotation Yrotation
              End Site
              {
                OFFSET 0.0001 17.6655 0.5274
              }
            }
          }
          JOINT LeftCollar
          {
            OFFSET 2.2603 21.606 7.4023
            CHANNELS 6 Xposition Yposition Zposition Zrotation Xrotation Yrotation
            JOINT LeftShoulder
            {
              OFFSET 13.5163 -1.1332 -5.0146
              CHANNELS 6 Xposition Yposition Zposition Zrotation Xrotation Yrotation
              JOINT LeftElbow
              {
                OFFSET -0.0995 -28.05 -0.2431
                CHANNELS 6 Xposition Yposition Zposition Zrotation Xrotation Yrotation
                JOINT LeftWrist
                {
                  OFFSET 0.0679 -23.3996 -0.1402
                  CHANNELS 6 Xposition Yposition Zposition Zrotation Xrotation Yrotation
                  JOINT LeftFinger1
                  {
                    OFFSET 0.7932 -9.069 2.5189
                    CHANNELS 6 Xposition Yposition Zposition Zrotation Xrotation Yrotation
                    JOINT LeftFinger11
                    {
                      OFFSET -0.8272 -3.3923 0.5977
                      CHANNELS 6 Xposition Yposition Zposition Zrotation Xrotation Yrotation
                      JOINT LeftFinger12
                      {
                        OFFSET -0.5649 -2.3158 0.4082
                        CHANNELS 6 Xposition Yposition Zposition Zrotation Xrotation Yrotation
                        End Site
                        {
                          OFFSET -0.4919 -1.6479 0.2673
                        }
                      }
                    }
                  }
                  JOINT LeftFinger2
                  {
                    OFFSET 0.9159 -9.2044 0.2193
                    CHANNELS 6 Xposition Yposition Zposition Zrotation Xrotation Yrotation
                    JOINT LeftFinger21
                    {
                      OFFSET 0.0117 -4.1944 -0.0248
                      CHANNELS 6 Xposition Yposition Zposition Zrotation Xrotation Yrotation
                      JOINT LeftFinger22
                      {
                        OFFSET 0.0071 -2.3249 -0.0142
                        CHANNELS 6 Xposition Yposition Zposition Zrotation Xrotation Yrotation
                        End Site
                        {
                          OFFSET -0.1475 -2.0882 0.0028
                        }
                      }
                    }
                  }
                  JOINT LeftFinger3
                  {
                    OFFSET 0.6113 -8.7231 -2.0637
                    CHANNELS 6 Xposition Yposition Zposition Zrotation Xrotation Yrotation
                    JOINT LeftFinger31
                    {
                      OFFSET -0.1927 -3.8059 -0.2383
                      CHANNELS 6 Xposition Yposition Zposition Zrotation Xrotation Yrotation
                      JOINT LeftFinger32
                      {
                        OFFSET -0.1091 -2.1688 -0.1362
                        CHANNELS 6 Xposition Yposition Zposition Zrotation Xrotation Yrotation
                        End Site
                        {
                          OFFSET -0.2358 -1.9176 -0.0906
                        }
                      }
                    }
                  }
                  JOINT LeftFinger4
                  {
                    OFFSET -0.6151 -8.0947 -3.5641
                    CHANNELS 6 Xposition Yposition Zposition Zrotation Xrotation Yrotation
                    JOINT LeftFinger41
                    {
                      OFFSET -0.4882 -2.341 -0.6462
                      CHANNELS 6 Xposition Yposition Zposition Zrotation Xrotation Yrotation
                      JOINT LeftFinger42
                      {
                        OFFSET -0.3575 -1.7167 -0.4742
                        CHANNELS 6 Xposition Yposition Zposition Zrotation Xrotation Yrotation
                        End Site
                        {
                          OFFSET -0.4187 -1.5237 -0.3496
                        }
                      }
                    }
                  }
                  JOINT LeftFinger0
                  {
                    OFFSET -1.42 -1.8761 1.4223
                    CHANNELS 6 Xposition Yposition Zposition Zrotation Xrotation Yrotation
                    JOINT LeftFinger01
                    {
                      OFFSET -1.1471 -3.4929 2.6334
                      CHANNELS 6 Xposition Yposition Zposition Zrotation Xrotation Yrotation
                      JOINT LeftFinger02
                      {
                        OFFSET -0.823 -2.3 1.6571
                        CHANNELS 6 Xposition Yposition Zposition Zrotation Xrotation Yrotation
                        End Site
                        {
                          OFFSET -0.5822 -1.6914 1.1582
                        }
                      }
                    }
                  }
                }
              }
            }
          }
          JOINT RightCollar
          {
            OFFSET -2.2603 21.606 7.4023
            CHANNELS 6 Xposition Yposition Zposition Zrotation Xrotation Yrotation
            JOINT RightShoulder
            {
              OFFSET -13.5187 -1.1334 -5.0155
              CHANNELS 6 Xposition Yposition Zposition Zrotation Xrotation Yrotation
              JOINT RightElbow
              {
                OFFSET 0.0994 -28.0499 -0.2431
                CHANNELS 6 Xposition Yposition Zposition Zrotation Xrotation Yrotation
                JOINT RightWrist
                {
                  OFFSET -0.0679 -23.3996 -0.1402
                  CHANNELS 6 Xposition Yposition Zposition Zrotation Xrotation Yrotation
                  JOINT RightFinger1
                  {
                    OFFSET -0.7932 -9.0691 2.5189
                    CHANNELS 6 Xposition Yposition Zposition Zrotation Xrotation Yrotation
                    JOINT RightFinger11
                    {
                      OFFSET 0.8272 -3.3923 0.5977
                      CHANNELS 6 Xposition Yposition Zposition Zrotation Xrotation Yrotation
                      JOINT RightFinger12
                      {
                        OFFSET 0.565 -2.3158 0.4082
                        CHANNELS 6 Xposition Yposition Zposition Zrotation Xrotation Yrotation
                        End Site
                        {
                          OFFSET 0.4919 -1.6479 0.2673
                        }
                      }
                    }
                  }
                  JOINT RightFinger2
                  {
                    OFFSET -0.916 -9.2044 0.2193
                    CHANNELS 6 Xposition Yposition Zposition Zrotation Xrotation Yrotation
                    JOINT RightFinger21
                    {
                      OFFSET -0.0117 -4.1944 -0.0248
                      CHANNELS 6 Xposition Yposition Zposition Zrotation Xrotation Yrotation
                      JOINT RightFinger22
                      {
                        OFFSET -0.0071 -2.3249 -0.0142
                        CHANNELS 6 Xposition Yposition Zposition Zrotation Xrotation Yrotation
                        End Site
                        {
                          OFFSET 0.1475 -2.0882 0.0028
                        }
                      }
                    }
                  }
                  JOINT RightFinger3
                  {
                    OFFSET -0.6113 -8.7231 -2.0637
                    CHANNELS 6 Xposition Yposition Zposition Zrotation Xrotation Yrotation
                    JOINT RightFinger31
                    {
                      OFFSET 0.1927 -3.8059 -0.2383
                      CHANNELS 6 Xposition Yposition Zposition Zrotation Xrotation Yrotation
                      JOINT RightFinger32
                      {
                        OFFSET 0.1091 -2.1688 -0.1362
                        CHANNELS 6 Xposition Yposition Zposition Zrotation Xrotation Yrotation
                        End Site
                        {
                          OFFSET 0.2358 -1.9176 -0.0906
                        }
                      }
                    }
                  }
                  JOINT RightFinger4
                  {
                    OFFSET 0.6151 -8.0947 -3.564
                    CHANNELS 6 Xposition Yposition Zposition Zrotation Xrotation Yrotation
                    JOINT RightFinger41
                    {
                      OFFSET 0.4882 -2.341 -0.6462
                      CHANNELS 6 Xposition Yposition Zposition Zrotation Xrotation Yrotation
                      JOINT RightFinger42
                      {
                        OFFSET 0.3574 -1.7166 -0.4742
                        CHANNELS 6 Xposition Yposition Zposition Zrotation Xrotation Yrotation
                        End Site
                        {
                          OFFSET 0.4187 -1.5237 -0.3496
                        }
                      }
                    }
                  }
                  JOINT RightFinger0
                  {
                    OFFSET 1.4199 -1.8761 1.4221
                    CHANNELS 6 Xposition Yposition Zposition Zrotation Xrotation Yrotation
                    JOINT RightFinger01
                    {
                      OFFSET 1.1472 -3.4929 2.6336
                      CHANNELS 6 Xposition Yposition Zposition Zrotation Xrotation Yrotation
                      JOINT RightFinger02
                      {
                        OFFSET 0.8229 -2.3 1.6571
                        CHANNELS 6 Xposition Yposition Zposition Zrotation Xrotation Yrotation
                        End Site
                        {
                          OFFSET 0.5822 -1.6914 1.1582
                        }
                      }
                    }
                  }
                }
              }
            }
          }
        }
      }
    }
    JOINT RightHip
    {
      OFFSET -9.412 3.9771 -0.7758
      CHANNELS 6 Xposition Yposition Zposition Zrotation Xrotation Yrotation
      JOINT RightKnee
      {
        OFFSET -0.7531 -40.938 0
        CHANNELS 6 Xposition Yposition Zposition Zrotation Xrotation Yrotation
        JOINT RightAnkle
        {
          OFFSET 0 -40.1986 0
          CHANNELS 6 Xposition Yposition Zposition Zrotation Xrotation Yrotation
          JOINT RightToe
          {
            OFFSET 0 -4.4182 9.239
            CHANNELS 6 Xposition Yposition Zposition Zrotation Xrotation Yrotation
            End Site
            {
              OFFSET 0 0 6.1981
            }
          }
        }
      }
    }
    JOINT LeftHip
    {
      OFFSET 9.4119 3.9773 -0.7758
      CHANNELS 6 Xposition Yposition Zposition Zrotation Xrotation Yrotation
      JOINT LeftKnee
      {
        OFFSET 0.7532 -40.9383 0
        CHANNELS 6 Xposition Yposition Zposition Zrotation Xrotation Yrotation
        JOINT LeftAnkle
        {
          OFFSET 0 -40.1986 0
          CHANNELS 6 Xposition Yposition Zposition Zrotation Xrotation Yrotation
          JOINT LeftToe
          {
            OFFSET 0 -4.4182 9.239
            CHANNELS 6 Xposition Yposition Zposition Zrotation Xrotation Yrotation
            End Site
            {
              OFFSET 0 0 6.1981
            }
          }
        }
      }
    }
  }
}
MOTION
Frames:	4
Frame Time:	0.0333333
64.2974 -54.0072 99.7696 0 0 -0 0 78.7191 0 44.6782 -65.4294 -127.009 0 8.7983 -4.7612 -3.4408 -1.24852 -1.58769 0 8.0291 0.4195 -6.91716 -2.39901 -3.24857 -7.10543e-015 9.9351 -2.2114 -6.91718 -2.39902 -3.24858 1.42109e-014 22.3885 -0.4656 -3.83958 -2.73981 0.353427 -0.0001 12.643 3.4389 15.6786 -36.3135 15.7565 2.2603 21.606 7.4023 -3.37585 -2.82791 -16.8323 13.5163 -1.1332 -5.0146 90.8671 -29.2141 52.9032 -0.0995 -28.05 -0.2431 -8.68728 -32.0226 10.2927 0.0679 -23.3996 -0.1402 9.70162 -9.89259 -8.28439 0.7932 -9.069 2.5189 15.9304 -7.89481 -3.46472 -0.8272 -3.3923 0.5977 -0.461731 -5.06609 -2.4282 -0.5649 -2.3158 0.4082 11.9126 -7.22635 1.39151 0.9159 -9.2044 0.2193 28.2687 -16.8134 3.79745 0.0117 -4.1944 -0.0248 -1.12469 -6.53738 0.569331 0.0071 -2.3249 -0.0142 22.8099 -13.0695 4.86517 0.6113 -8.7231 -2.0637 40.3932 -17.9893 10.2328 -0.1927 -3.8059 -0.2383 -1.26992 -8.45335 1.72307 -0.1091 -2.1688 -0.1362 25.312 -15.4322 6.76336 -0.6151 -8.0947 -3.5641 48.2726 -15.1056 12.8448 -0.4882 -2.341 -0.6462 -0.137237 -9.11119 5.89619 -0.3575 -1.7167 -0.4742 16.802 -10.5029 4.29403 -1.42 -1.8761 1.4223 15.2903 -21.8218 -7.99146 -1.1471 -3.4929 2.6334 -2.76403 -0.176541 0.333045 -0.823 -2.3 1.6571 -0.00792805 -0.0104093 0.00212114 -2.2603 21.606 7.4023 -37.8815 -0.125022 4.66796 -13.5187 -1.1334 -5.0155 -60.2101 -73.7114 -38.142 0.0994 -28.0499 -0.2431 4.08276 -22.7557 -18.5275 -0.0679 -23.3996 -0.1402 -41.2338 -6.53546 -9.99133 -0.7932 -9.0691 2.5189 -1.82821 -0.276141 0.128286 0.8272 -3.3923 0.5977 -0.0377559 -0.340298 0.393937 0.565 -2.3158 0.4082 -1.3155 -0.456362 0.0137346 -0.916 -9.2044 0.2193 -15.0056 -4.9756 -0.872499 -0.0117 -4.1944 -0.0248 0.3112 -1.69777 -0.156191 -0.0071 -2.3249 -0.0142 -12.3176 -4.11535 -0.738183 -0.6113 -8.7231 -2.0637 -29.5935 -5.66062 -4.29577 0.1927 -3.8059 -0.2383 0.405418 -2.6953 -1.13295 0.1091 -2.1688 -0.1362 -12.3192 -4.61285 -1.19316 0.6151 -8.0947 -3.564 -42.4064 -1.99702 -5.39207 0.4882 -2.341 -0.6462 -0.406955 -1.98793 -3.54301 0.3574 -1.7166 -0.4742 -12.347 -4.43056 -1.52709 1.4199 -1.8761 1.4221 -1.03503 -2.86238 -3.12758 1.1472 -3.4929 2.6336 -0.969162 2.19673 0.708895 0.8229 -2.3 1.6571 -1.08159 2.44689 0.792274 -9.412 3.9771 -0.7758 -82.5313 -44.419 -52.1311 -0.7531 -40.938 2.84217e-014 157.447 49.7153 -145.61 1.42109e-014 -40.1986 -1.42109e-014 4.21591 -5.24902 30.4198 0 -4.4182 9.239 -0.516843 -3.64286 0.192427 9.4119 3.9773 -0.7758 38.9805 -39.8283 49.8343 0.7532 -40.9383 0 -179.433 78.5746 177.155 -3.55271e-015 -40.1986 0 -5.12358 -3.0806 -24.6344 7.10543e-015 -4.4182 9.239 1.23696 -9.16923 0.0991391 
64.5761 -53.592 99.8022 0 0 -0 0 78.7191 0 58.4196 -65.5414 -114.9 -7.10543e-015 8.7983 -4.7612 -2.62297 -2.53189 -1.66179 -7.10543e-015 8.0291 0.4195 -5.32598 -4.98388 -3.44285 -7.10543e-015 9.9351 -2.2114 -5.32599 -4.9839 -3.44287 0 22.3885 -0.4656 -4.05041 -1.90843 0.848256 -0.0001 12.643 3.4389 15.6744 -35.5944 15.6515 2.2603 21.606 7.4023 -1.96718 -2.80317 -14.0488 13.5163 -1.1332 -5.0146 87.0604 -32.0294 50.9433 -0.0995 -28.05 -0.2431 -8.78542 -31.9379 10.077 0.0679 -23.3996 -0.1402 10.6269 -10.2701 -7.69804 0.7932 -9.069 2.5189 15.9304 -7.89487 -3.46493 -0.8272 -3.3923 0.5977 -0.461749 -5.06607 -2.42815 -0.5649 -2.3158 0.4082 11.9125 -7.22634 1.39148 0.9159 -9.2044 0.2193 28.2687 -16.8134 3.79748 0.0117 -4.1944 -0.0248 -1.12472 -6.53742 0.569145 0.0071 -2.3249 -0.0142 22.8099 -13.0695 4.86517 0.6113 -8.7231 -2.0637 40.3932 -17.9893 10.2328 -0.1927 -3.8059 -0.2383 -1.26991 -8.45336 1.72307 -0.1091 -2.1688 -0.1362 25.312 -15.4323 6.76336 -0.6151 -8.0947 -3.5641 48.2726 -15.1056 12.8448 -0.4882 -2.341 -0.6462 -0.137248 -9.11116 5.89625 -0.3575 -1.7167 -0.4742 16.802 -10.5029 4.29403 -1.42 -1.8761 1.4223 15.2903 -21.8219 -7.99148 -1.1471 -3.4929 2.6334 -2.76404 -0.176516 0.333047 -0.823 -2.3 1.6571 -0.0079085 -0.0104225 0.00213294 -2.2603 21.606 7.4023 -37.0121 -0.114796 4.82893 -13.5187 -1.1334 -5.0155 -57.4304 -74.1276 -35.9723 0.0994 -28.0499 -0.2431 4.28182 -22.0352 -18.8711 -0.0679 -23.3996 -0.1402 -40.2329 -8.34385 -7.63827 -0.7932 -9.0691 2.5189 -1.82646 -0.258756 0.134839 0.8272 -3.3923 0.5977 -0.0374284 -0.336827 0.389776 0.565 -2.3158 0.4082 -1.2786 -0.443935 0.0133356 -0.916 -9.2044 0.2193 -14.9906 -4.97349 -0.862817 -0.0117 -4.1944 -0.0248 0.310144 -1.69168 -0.156263 -0.0071 -2.3249 -0.0142 -12.2787 -4.10272 -0.73447 -0.6113 -8.7231 -2.0637 -29.5705 -5.66711 -4.29671 0.1927 -3.8059 -0.2383 0.404685 -2.68995 -1.13144 0.1091 -2.1688 -0.1362 -12.2869 -4.6012 -1.18873 0.6151 -8.0947 -3.564 -42.3336 -1.99407 -5.38985 0.4882 -2.341 -0.6462 -0.404667 -1.97529 -3.52521 0.3574 -1.7166 -0.4742 -12.2736 -4.40543 -1.51525 1.4199 -1.8761 1.4221 -1.05681 -2.86763 -3.11904 1.1472 -3.4929 2.6336 -0.957021 2.16964 0.699896 0.8229 -2.3 1.6571 -1.07651 2.43558 0.788531 -9.412 3.9771 -0.7758 -83.6692 -45.8932 -58.799 -0.7531 -40.938 0 157.108 50.2497 -145.403 -2.13163e-014 -40.1986 -1.42109e-014 4.70804 -5.20368 29.0135 1.42109e-014 -4.4182 9.239 -0.313441 -2.19967 0.120105 9.4119 3.9773 -0.7758 45.569 -43.4142 55.1255 0.7532 -40.9383 0 -179.497 77.8324 177.197 -7.10543e-015 -40.1986 0 -4.87934 -3.21035 -24.8592 0 -4.4182 9.239 1.08154 -8.03311 0.0759235 
64.6014 -53.3755 99.8031 0 0 -0 0 78.7191 0 67.4671 -64.7682 -106.708 0 8.7983 -4.7612 -2.00021 -3.45082 -1.65601 -7.10543e-015 8.0291 0.4195 -4.11073 -6.84009 -3.44115 0 9.9351 -2.2114 -4.11072 -6.84013 -3.44116 0 22.3885 -0.4656 -4.21781 -0.853684 1.26527 -0.0001 12.643 3.4389 15.7092 -35.0663 15.593 2.2603 21.606 7.4023 -1.13143 -2.77639 -12.5334 13.5163 -1.1332 -5.0146 83.8691 -33.746 49.041 -0.0995 -28.05 -0.2431 -9.56628 -32.1276 9.4487 0.0679 -23.3996 -0.1402 11.7801 -10.4115 -7.18468 0.7932 -9.069 2.5189 15.9304 -7.89484 -3.46492 -0.8272 -3.3923 0.5977 -0.461742 -5.06607 -2.42807 -0.5649 -2.3158 0.4082 11.9126 -7.22634 1.3915 0.9159 -9.2044 0.2193 28.2687 -16.8134 3.79754 0.0117 -4.1944 -0.0248 -1.12471 -6.53744 0.569138 0.0071 -2.3249 -0.0142 22.8099 -13.0695 4.86521 0.6113 -8.7231 -2.0637 40.3932 -17.9893 10.2328 -0.1927 -3.8059 -0.2383 -1.26996 -8.45332 1.72307 -0.1091 -2.1688 -0.1362 25.312 -15.4323 6.76335 -0.6151 -8.0947 -3.5641 48.2725 -15.1055 12.8449 -0.4882 -2.341 -0.6462 -0.137202 -9.11114 5.89628 -0.3575 -1.7167 -0.4742 16.802 -10.5028 4.29404 -1.42 -1.8761 1.4223 15.2903 -21.8219 -7.99154 -1.1471 -3.4929 2.6334 -2.76403 -0.176509 0.333044 -0.823 -2.3 1.6571 -0.00792534 -0.0104088 0.00216895 -2.2603 21.606 7.4023 -36.1569 -0.102236 4.90536 -13.5187 -1.1334 -5.0155 -54.165 -73.8439 -33.0904 0.0994 -28.0499 -0.2431 4.28066 -21.7533 -18.2198 -0.0679 -23.3996 -0.1402 -39.3018 -9.13302 -6.22139 -0.7932 -9.0691 2.5189 -1.82474 -0.241365 0.141381 0.8272 -3.3923 0.5977 -0.0371121 -0.333435 0.385673 0.565 -2.3158 0.4082 -1.24168 -0.431487 0.0129673 -0.916 -9.2044 0.2193 -14.9756 -4.97136 -0.853168 -0.0117 -4.1944 -0.0248 0.309063 -1.6856 -0.156326 -0.0071 -2.3249 -0.0142 -12.2398 -4.09008 -0.730769 -0.6113 -8.7231 -2.0637 -29.5476 -5.67358 -4.29764 0.1927 -3.8059 -0.2383 0.40393 -2.68456 -1.12996 0.1091 -2.1688 -0.1362 -12.2618 -4.59217 -1.18532 0.6151 -8.0947 -3.564 -42.2608 -1.99112 -5.38768 0.4882 -2.341 -0.6462 -0.402417 -1.96262 -3.50739 0.3574 -1.7166 -0.4742 -12.2001 -4.3803 -1.50347 1.4199 -1.8761 1.4221 -1.07862 -2.87289 -3.11049 1.1472 -3.4929 2.6336 -0.944874 2.14258 0.690898 0.8229 -2.3 1.6571 -1.07142 2.42426 0.78476 -9.412 3.9771 -0.7758 -84.4931 -46.1886 -63.1031 -0.7531 -40.938 0 156.73 50.8934 -145.123 7.10543e-015 -40.1986 -1.42109e-014 5.70997 -4.34705 29.4389 -1.42109e-014 -4.4182 9.239 -0.330217 -2.3184 0.126242 9.4119 3.9773 -0.7758 50.1988 -45.7381 58.631 0.7532 -40.9383 -1.42109e-014 -179.56 77.4394 177.257 -7.10543e-015 -40.1986 -1.42109e-014 -4.55409 -3.79486 -25.2282 -1.42109e-014 -4.4182 9.239 1.17919 -8.74769 0.0901727 
64.6517 -53.1409 99.6706 0 0 -0 0 78.7191 0 75.6341 -62.8909 -98.9475 0 8.7983 -4.7612 -1.25724 -4.2852 -1.73032 7.10543e-015 8.0291 0.4195 -2.65517 -8.52925 -3.56972 7.10543e-015 9.9351 -2.2114 -2.65518 -8.52926 -3.56973 -3.55271e-015 22.3885 -0.4656 -4.5421 -0.0174318 1.90789 -0.0001 12.643 3.4389 15.6103 -34.474 15.6588 2.2603 21.606 7.4023 -0.0690211 -2.74538 -11.0817 13.5163 -1.1332 -5.0146 79.7091 -35.9469 46.8343 -0.0995 -28.05 -0.2431 -9.12895 -32.2386 10.0646 0.0679 -23.3996 -0.1402 12.391 -10.8142 -7.65975 0.7932 -9.06901 2.5189 15.9304 -7.89485 -3.46491 -0.8272 -3.3923 0.5977 -0.461705 -5.06609 -2.42826 -0.5649 -2.3158 0.4082 11.9126 -7.22634 1.39151 0.9159 -9.20441 0.2193 28.2687 -16.8134 3.79765 0.0117 -4.1944 -0.0248 -1.12468 -6.53745 0.569141 0.0071 -2.3249 -0.0142 22.8099 -13.0694 4.86521 0.6113 -8.72311 -2.0637 40.3932 -17.9893 10.2328 -0.1927 -3.8059 -0.2383 -1.26991 -8.45336 1.72311 -0.1091 -2.1688 -0.1362 25.312 -15.4322 6.76335 -0.6151 -8.09471 -3.5641 48.2725 -15.1055 12.8449 -0.4882 -2.341 -0.6462 -0.137266 -9.11118 5.89618 -0.3575 -1.7167 -0.4742 16.802 -10.5028 4.29405 -1.42 -1.8761 1.4223 15.2903 -21.8219 -7.99166 -1.1471 -3.4929 2.6334 -2.76404 -0.17654 0.333054 -0.823 -2.3 1.6571 -0.00792325 -0.0103968 0.00224298 -2.2603 21.606 7.4023 -34.7885 -0.0812853 4.97525 -13.5187 -1.1334 -5.0155 -52.9852 -73.6397 -32.1113 0.0994 -28.0499 -0.2431 4.57289 -20.9967 -17.9996 -0.0679 -23.3996 -0.1402 -38.2181 -10.6306 -4.12247 -0.7932 -9.06911 2.5189 -1.82301 -0.223941 0.14795 0.8272 -3.3923 0.5977 -0.0368082 -0.329987 0.381573 0.565 -2.3158 0.4082 -1.20477 -0.419072 0.0125598 -0.916 -9.2044 0.2193 -14.9606 -4.96925 -0.843491 -0.0117 -4.1944 -0.0248 0.307993 -1.6795 -0.156363 -0.0071 -2.3249 -0.0142 -12.201 -4.07742 -0.727091 -0.6113 -8.7231 -2.0637 -29.5245 -5.68002 -4.29855 0.1927 -3.8059 -0.2383 0.403186 -2.67922 -1.12844 0.1091 -2.1688 -0.1362 -12.2366 -4.58311 -1.18191 0.6151 -8.0947 -3.564 -42.1881 -1.98814 -5.38548 0.4882 -2.341 -0.6462 -0.400061 -1.94932 -3.48858 0.3574 -1.7166 -0.4742 -12.1211 -4.35329 -1.49082 1.4199 -1.8761 1.4221 -1.09979 -2.87721 -3.09472 1.1472 -3.4929 2.6336 -0.93272 2.11553 0.681909 0.8229 -2.3 1.6571 -1.06635 2.41295 0.781002 -9.412 3.9771 -0.7758 -84.1615 -45.9887 -66.5614 -0.7531 -40.938 0 156.092 51.8563 -144.607 1.42109e-014 -40.1986 0 7.022 -3.78825 29.7559 -1.42109e-014 -4.4182 9.239 -0.311865 -2.18864 0.119558 9.4119 3.9773 -0.7758 55.6535 -48.1277 62.3987 0.7532 -40.9383 -1.42109e-014 -179.603 76.9285 177.302 0 -40.1986 0 -3.91118 -3.93635 -25.1171 0 -4.4182 9.239 1.116 -8.28582 0.0807907 
